<svg width="82" height="30" viewBox="0 0 82 30" fill="none" xmlns="http://www.w3.org/2000/svg">
<g id="Group 1561">
<g id="Group 1558">
<path id="Vector" d="M37.3889 17.602H53.7106L52.4882 30H48.6056L49.5386 20.9152H37.1025L37.3889 17.602Z" fill="#6F00B6"/>
<path id="Vector_2" d="M55.485 0.0019455L53.8227 15.7073H49.8516L51.5138 0.0019455H55.485Z" fill="#6F00B6"/>
<g id="Group 1560">
<path id="Vector_3" d="M68.4768 4.05156H60.2422L60.5197 0.857742H68.7544L68.4768 4.05156Z" fill="#6F00B6"/>
<path id="Vector_4" d="M70.4031 8.6362L70.6747 5.53075H57.5861L57.3145 8.6362H60.078L60.0574 8.87371C58.8822 9.5239 58.2297 10.5986 58.0998 12.0979C58.029 12.9262 58.1973 13.6803 58.6077 14.3602C59.0181 15.0401 59.6381 15.5834 60.4648 15.9872C61.2915 16.3909 62.254 16.5928 63.3524 16.5928C64.4507 16.5928 65.4487 16.3909 66.3463 15.9872C67.2438 15.5834 67.9584 15.0401 68.4869 14.3602C69.0183 13.6803 69.3165 12.9262 69.3903 12.0979C69.5202 10.5986 69.0537 9.5239 67.9938 8.87371L68.0145 8.6362H70.3972H70.4031ZM65.9624 11.0024L65.9211 11.4745C65.865 12.1068 65.6288 12.5878 65.2066 12.9233C64.7844 13.2587 64.2618 13.425 63.6329 13.425C63.004 13.425 62.5109 13.2587 62.1478 12.9233C61.7846 12.5878 61.6311 12.1068 61.6842 11.4745L61.7255 11.0024C61.7816 10.373 62.0178 9.88313 62.4401 9.53874C62.8623 9.19435 63.3878 9.02216 64.0138 9.02216C64.6397 9.02216 65.1357 9.19435 65.4989 9.53874C65.8621 9.88313 66.0156 10.373 65.9595 11.0024H65.9624Z" fill="#6F00B6"/>
<path id="Vector_5" d="M76.201 19.2079C75.1068 18.0797 73.5132 17.5157 71.4201 17.5157C70.0287 17.5157 68.8216 17.771 67.7988 18.2846C66.7731 18.7982 65.9733 19.5256 65.3965 20.4697C64.8197 21.4138 64.4927 22.5152 64.4213 23.7651C64.35 25.018 64.5492 26.1106 65.0189 27.0458C65.4887 27.978 66.2052 28.7024 67.1715 29.216C68.1378 29.7296 69.3151 29.985 70.7036 29.985C72.0921 29.985 73.3021 29.7296 74.3249 29.216C75.3477 28.7024 76.1445 27.981 76.7153 27.0458C77.2862 26.1106 77.6043 25.018 77.6786 23.7651C77.7886 21.8532 77.2951 20.3331 76.201 19.2049V19.2079ZM74.5479 23.2664L74.5241 23.6761C74.4825 24.4035 74.1584 25.0032 73.5578 25.4693C72.9543 25.9354 72.0713 26.1699 70.9028 26.1699C69.7344 26.1699 68.8573 25.9354 68.3072 25.4693C67.7572 25.0032 67.5045 24.4035 67.5461 23.6761L67.5699 23.2664C67.6115 22.539 67.9326 21.9333 68.5362 21.4554C69.1397 20.9774 70.0317 20.7369 71.212 20.7369C72.3924 20.7369 73.2546 20.9714 73.7957 21.4375C74.3368 21.9037 74.5865 22.5123 74.5419 23.2664H74.5479Z" fill="#6F00B6"/>
<path id="Vector_6" d="M81.3297 0L79.883 16.6525H76.1185L76.6854 10.115H74.8932L74.3854 15.9399H70.6504L72.0027 0.382986H75.7376L75.1737 6.86108H76.9688L77.5652 0H81.3297Z" fill="#6F00B6"/>
</g>
<path id="Vector_7" d="M33.6691 1.56977H48.7624L48.479 4.82366H44.0384L35.476 15.7491H30.752L39.6568 4.82366H33.3886L33.6691 1.56977Z" fill="#6F00B6"/>
<path id="Vector_8" d="M39.6084 8.02975L43.7597 15.1551H48.7613L44.3177 8.02975H39.6084Z" fill="#6F00B6"/>
</g>
<path id="Subtract" fill-rule="evenodd" clip-rule="evenodd" d="M25.9671 14.416C25.8311 15.2461 25.1182 15.924 23.6924 17.2799L15.5351 25.0376C14.2665 26.244 13.6323 26.8472 12.8687 26.9764C12.6212 27.0183 12.3689 27.0233 12.12 26.9913C11.3518 26.8925 10.6938 26.3149 9.37774 25.1598L1.18741 17.9711C0.372664 17.256 -0.0347082 16.8984 0.00231616 16.5734C0.0137495 16.473 0.0493654 16.3768 0.106144 16.2931C0.290009 16.0218 0.833384 16.0122 1.92014 15.993L12.6208 15.8039C12.8347 15.8001 12.9417 15.7983 13.0095 15.8543C13.0312 15.8723 13.0495 15.894 13.0637 15.9183C13.1078 15.9944 13.0883 16.0996 13.0492 16.31L12.6733 18.3361C12.5116 19.2077 12.4307 19.6435 12.6784 19.8193C12.926 19.9952 13.3108 19.7753 14.0805 19.3355L21.7103 14.9756C22.4588 14.5479 22.833 14.3341 22.833 14.0121C22.833 13.6901 22.4588 13.4762 21.7103 13.0485L14.0805 8.68862C13.3108 8.24882 12.926 8.02891 12.6784 8.20479C12.4307 8.38068 12.5116 8.81647 12.6733 9.68804L13.0488 11.712C13.0879 11.9223 13.1074 12.0275 13.0633 12.1036C13.0492 12.1279 13.0308 12.1496 13.0091 12.1676C12.9414 12.2237 12.8344 12.2218 12.6206 12.2181L1.92121 12.033C0.834109 12.0142 0.290561 12.0048 0.106598 11.7336C0.0497909 11.6498 0.0141466 11.5537 0.00268892 11.4533C-0.0344148 11.1282 0.373036 10.7705 1.18794 10.0551L9.37769 2.86487C10.6937 1.70947 11.3518 1.13175 12.12 1.03287C12.3689 1.00083 12.6213 1.00583 12.8688 1.04769C13.6324 1.17689 14.2668 1.78017 15.5355 2.98674L23.6924 10.744C25.1182 12.0999 25.8311 12.7778 25.9671 13.6079C26.011 13.8755 26.011 14.1484 25.9671 14.416Z" fill="#6F00B6"/>
</g>
</svg>
