<svg width="24" height="24" viewBox="0 0 24 24" fill="none" xmlns="http://www.w3.org/2000/svg">
<path d="M17.6415 6.35097C16.0115 4.72097 13.7015 3.78097 11.1615 4.04097C7.49148 4.41097 4.47148 7.39097 4.06148 11.061C3.51148 15.911 7.26148 20.001 11.9915 20.001C15.1815 20.001 17.9215 18.131 19.2015 15.441C19.5215 14.771 19.0415 14.001 18.3015 14.001C17.9315 14.001 17.5815 14.201 17.4215 14.531C16.2915 16.961 13.5815 18.501 10.6215 17.841C8.40148 17.351 6.61148 15.541 6.14148 13.321C5.30148 9.44097 8.25148 6.00097 11.9915 6.00097C13.6515 6.00097 15.1315 6.69097 16.2115 7.78097L14.7015 9.29097C14.0715 9.92097 14.5115 11.001 15.4015 11.001H18.9915C19.5415 11.001 19.9915 10.551 19.9915 10.001V6.41097C19.9915 5.52097 18.9115 5.07097 18.2815 5.70097L17.6415 6.35097Z" fill="#7951FF"/>
</svg>
