<svg width="28" height="28" viewBox="0 0 28 28" fill="none" xmlns="http://www.w3.org/2000/svg">
<g id="search">
<path id="Vector" d="M18.6388 16.8834H17.7171L17.3904 16.5684C18.7904 14.935 19.5138 12.7067 19.1171 10.3384C18.5688 7.09505 15.8621 4.50505 12.5954 4.10838C7.66042 3.50171 3.50708 7.65505 4.11375 12.59C4.51042 15.8567 7.10042 18.5634 10.3438 19.1117C12.7121 19.5084 14.9404 18.785 16.5737 17.385L16.8888 17.7117V18.6334L21.8471 23.5917C22.3254 24.07 23.1071 24.07 23.5854 23.5917C24.0637 23.1134 24.0637 22.3317 23.5854 21.8534L18.6388 16.8834ZM11.6388 16.8834C8.73375 16.8834 6.38875 14.5384 6.38875 11.6334C6.38875 8.72838 8.73375 6.38338 11.6388 6.38338C14.5438 6.38338 16.8888 8.72838 16.8888 11.6334C16.8888 14.5384 14.5438 16.8834 11.6388 16.8834Z" fill="#7951FF"/>
</g>
</svg>
