<svg width="20" height="21" viewBox="0 0 20 21" fill="none" xmlns="http://www.w3.org/2000/svg">
<g id="sort">
<path id="Vector" d="M3.33333 15.5H6.66667C7.125 15.5 7.5 15.125 7.5 14.6667C7.5 14.2083 7.125 13.8333 6.66667 13.8333H3.33333C2.875 13.8333 2.5 14.2083 2.5 14.6667C2.5 15.125 2.875 15.5 3.33333 15.5ZM2.5 6.33333C2.5 6.79167 2.875 7.16667 3.33333 7.16667H16.6667C17.125 7.16667 17.5 6.79167 17.5 6.33333C17.5 5.875 17.125 5.5 16.6667 5.5H3.33333C2.875 5.5 2.5 5.875 2.5 6.33333ZM3.33333 11.3333H11.6667C12.125 11.3333 12.5 10.9583 12.5 10.5C12.5 10.0417 12.125 9.66667 11.6667 9.66667H3.33333C2.875 9.66667 2.5 10.0417 2.5 10.5C2.5 10.9583 2.875 11.3333 3.33333 11.3333Z" fill="#71717A"/>
</g>
</svg>
