<svg width="21" height="20" viewBox="0 0 21 20" fill="none" xmlns="http://www.w3.org/2000/svg">
<g id="visibility">
<path id="Vector" d="M10.4987 3.75C6.33203 3.75 2.7737 6.34167 1.33203 10C2.7737 13.6583 6.33203 16.25 10.4987 16.25C14.6654 16.25 18.2237 13.6583 19.6654 10C18.2237 6.34167 14.6654 3.75 10.4987 3.75ZM10.4987 14.1667C8.1987 14.1667 6.33203 12.3 6.33203 10C6.33203 7.7 8.1987 5.83333 10.4987 5.83333C12.7987 5.83333 14.6654 7.7 14.6654 10C14.6654 12.3 12.7987 14.1667 10.4987 14.1667ZM10.4987 7.5C9.11536 7.5 7.9987 8.61667 7.9987 10C7.9987 11.3833 9.11536 12.5 10.4987 12.5C11.882 12.5 12.9987 11.3833 12.9987 10C12.9987 8.61667 11.882 7.5 10.4987 7.5Z" fill="#B3B3BA"/>
</g>
</svg>
